<svg width="250" height="250" viewBox="0 0 250 250" fill="none" xmlns="http://www.w3.org/2000/svg">
<rect width="250" height="250" rx="5" fill="#333333"/>
<path d="M98.75 185V129.8C93.55 128.7 89.125 126.075 85.475 121.925C81.825 117.775 80 112.8 80 107V65H89V107H98.75V65H107.75V107H117.5V65H126.5V107C126.5 112.8 124.675 117.775 121.025 121.925C117.375 126.075 112.95 128.7 107.75 129.8V185H98.75ZM161 185V137H143.75V91.25C143.75 83.35 146.15 77 150.95 72.2C155.75 67.4 162.1 65 170 65V185H161Z" fill="white"/>
</svg>
