<svg width="352" height="62" viewBox="0 0 352 62" fill="none" xmlns="http://www.w3.org/2000/svg">
<!-- <svg title="google"> -->
<g filter="url(#filter0_dd_1_720)">
<rect x="3.84595" y="3" width="345" height="54" rx="10" fill="white"/>
<rect width="24" height="24" transform="translate(18.8459 18)" fill="white"/>
<path fill-rule="evenodd" clip-rule="evenodd" d="M41.8859 30.2613C41.8859 29.4459 41.8128 28.6618 41.6769 27.9091H30.8459V32.3575H37.035C36.7684 33.795 35.9582 35.0129 34.7403 35.8284V38.7138H38.4569C40.6314 36.7118 41.8859 33.7636 41.8859 30.2613Z" fill="#4285F4"/>
<path fill-rule="evenodd" clip-rule="evenodd" d="M30.8459 41.4998C33.9509 41.4998 36.5541 40.47 38.4568 38.7137L34.7402 35.8282C33.7105 36.5182 32.3932 36.9259 30.8459 36.9259C27.8507 36.9259 25.3155 34.903 24.4111 32.1848H20.5691V35.1644C22.4614 38.9228 26.3505 41.4998 30.8459 41.4998Z" fill="#34A853"/>
<path fill-rule="evenodd" clip-rule="evenodd" d="M24.4112 32.1851C24.1812 31.4951 24.0505 30.7581 24.0505 30.0001C24.0505 29.2422 24.1812 28.5051 24.4112 27.8151V24.8356H20.5691C19.7903 26.3881 19.3459 28.1444 19.3459 30.0001C19.3459 31.8558 19.7903 33.6122 20.5691 35.1647L24.4112 32.1851Z" fill="#FBBC05"/>
<path fill-rule="evenodd" clip-rule="evenodd" d="M30.8459 23.0739C32.5343 23.0739 34.0502 23.6541 35.242 24.7936L38.5405 21.4952C36.5489 19.6395 33.9457 18.5 30.8459 18.5C26.3505 18.5 22.4614 21.077 20.5691 24.8355L24.4111 27.815C25.3155 25.0968 27.8507 23.0739 30.8459 23.0739Z" fill="#EA4335"/>
<path d="M66.7717 32.3379C66.7717 32.0449 66.7262 31.7845 66.635 31.5566C66.5504 31.3288 66.3974 31.1204 66.176 30.9316C65.9547 30.7428 65.6422 30.5605 65.2385 30.3848C64.8414 30.2025 64.3336 30.0169 63.7151 29.8281C63.038 29.6198 62.413 29.3887 61.8401 29.1348C61.2737 28.8743 60.7789 28.5749 60.3557 28.2363C59.9325 27.8913 59.6038 27.4974 59.3694 27.0547C59.135 26.6055 59.0178 26.0879 59.0178 25.502C59.0178 24.9225 59.1383 24.3952 59.3792 23.9199C59.6265 23.4447 59.9749 23.0345 60.4241 22.6895C60.8798 22.3379 61.4169 22.0677 62.0354 21.8789C62.6539 21.6836 63.3375 21.5859 64.0862 21.5859C65.1409 21.5859 66.0491 21.7812 66.8108 22.1719C67.579 22.5625 68.1682 23.0866 68.5784 23.7441C68.995 24.4017 69.2034 25.1276 69.2034 25.9219H66.7717C66.7717 25.4531 66.6708 25.0397 66.469 24.6816C66.2737 24.3171 65.9742 24.0306 65.5706 23.8223C65.1734 23.6139 64.6689 23.5098 64.0569 23.5098C63.4775 23.5098 62.9957 23.5977 62.6116 23.7734C62.2275 23.9492 61.941 24.1868 61.7522 24.4863C61.5634 24.7858 61.469 25.1243 61.469 25.502C61.469 25.7689 61.5308 26.013 61.6545 26.2344C61.7782 26.4492 61.967 26.651 62.2209 26.8398C62.4749 27.0221 62.7939 27.1947 63.178 27.3574C63.5621 27.5202 64.0146 27.6764 64.5354 27.8262C65.3232 28.0605 66.01 28.321 66.5959 28.6074C67.1819 28.8874 67.6702 29.2064 68.0608 29.5645C68.4514 29.9225 68.7444 30.3294 68.9397 30.7852C69.135 31.2344 69.2327 31.7454 69.2327 32.3184C69.2327 32.9173 69.1122 33.4577 68.8713 33.9395C68.6305 34.4147 68.2854 34.8216 67.8362 35.1602C67.3935 35.4922 66.8596 35.7493 66.2346 35.9316C65.6161 36.1074 64.926 36.1953 64.1643 36.1953C63.4807 36.1953 62.8069 36.1042 62.1428 35.9219C61.4853 35.7396 60.8863 35.4629 60.3459 35.0918C59.8056 34.7142 59.3759 34.2454 59.0569 33.6855C58.7379 33.1191 58.5784 32.4583 58.5784 31.7031H61.0295C61.0295 32.1654 61.1077 32.5592 61.2639 32.8848C61.4267 33.2103 61.6513 33.4772 61.9377 33.6855C62.2242 33.8874 62.5562 34.0371 62.9338 34.1348C63.318 34.2324 63.7281 34.2812 64.1643 34.2812C64.7372 34.2812 65.2157 34.1999 65.5999 34.0371C65.9905 33.8743 66.2834 33.6465 66.4788 33.3535C66.6741 33.0605 66.7717 32.722 66.7717 32.3379ZM73.6858 25.4336V36H71.3225V25.4336H73.6858ZM71.1663 22.6602C71.1663 22.3021 71.2834 22.0059 71.5178 21.7715C71.7587 21.5306 72.0907 21.4102 72.5139 21.4102C72.9306 21.4102 73.2594 21.5306 73.5002 21.7715C73.7411 22.0059 73.8616 22.3021 73.8616 22.6602C73.8616 23.0117 73.7411 23.3047 73.5002 23.5391C73.2594 23.7734 72.9306 23.8906 72.5139 23.8906C72.0907 23.8906 71.7587 23.7734 71.5178 23.5391C71.2834 23.3047 71.1663 23.0117 71.1663 22.6602ZM83.0315 25.4336H85.1702V35.707C85.1702 36.6576 84.9683 37.4648 84.5647 38.1289C84.1611 38.793 83.5979 39.2975 82.8752 39.6426C82.1526 39.9941 81.316 40.1699 80.3655 40.1699C79.9618 40.1699 79.5126 40.1113 79.0178 39.9941C78.5295 39.877 78.0543 39.6882 77.592 39.4277C77.1363 39.1738 76.7555 38.8385 76.4495 38.4219L77.553 37.0352C77.9306 37.4844 78.3472 37.8132 78.803 38.0215C79.2587 38.2298 79.7372 38.334 80.2385 38.334C80.7789 38.334 81.2379 38.2331 81.6155 38.0312C81.9996 37.8359 82.2958 37.5462 82.5042 37.1621C82.7125 36.778 82.8167 36.3092 82.8167 35.7559V27.8262L83.0315 25.4336ZM75.8538 30.834V30.6289C75.8538 29.8281 75.9514 29.099 76.1467 28.4414C76.342 27.7773 76.622 27.2077 76.9866 26.7324C77.3512 26.2507 77.7939 25.8828 78.3147 25.6289C78.8355 25.3685 79.4247 25.2383 80.0823 25.2383C80.7659 25.2383 81.3486 25.362 81.8303 25.6094C82.3186 25.8568 82.7255 26.2116 83.051 26.6738C83.3765 27.1296 83.6305 27.6764 83.8127 28.3145C84.0015 28.946 84.1415 29.6491 84.2327 30.4238V31.0781C84.148 31.8333 84.0048 32.5234 83.803 33.1484C83.6012 33.7734 83.3342 34.3138 83.0022 34.7695C82.6702 35.2253 82.26 35.5768 81.7717 35.8242C81.29 36.0716 80.7203 36.1953 80.0627 36.1953C79.4182 36.1953 78.8355 36.0618 78.3147 35.7949C77.8004 35.528 77.3577 35.1536 76.9866 34.6719C76.622 34.1901 76.342 33.6237 76.1467 32.9727C75.9514 32.3151 75.8538 31.6022 75.8538 30.834ZM78.2073 30.6289V30.834C78.2073 31.3158 78.2528 31.765 78.344 32.1816C78.4417 32.5983 78.5881 32.9661 78.7834 33.2852C78.9853 33.5977 79.2392 33.8451 79.5452 34.0273C79.8577 34.2031 80.2255 34.291 80.6487 34.291C81.2021 34.291 81.6545 34.1738 82.0061 33.9395C82.3642 33.7051 82.6376 33.3893 82.8264 32.9922C83.0217 32.5885 83.1584 32.1393 83.2366 31.6445V29.877C83.1975 29.4928 83.1161 29.1348 82.9924 28.8027C82.8752 28.4707 82.7157 28.181 82.5139 27.9336C82.3121 27.6797 82.0582 27.4844 81.7522 27.3477C81.4462 27.2044 81.0849 27.1328 80.6682 27.1328C80.245 27.1328 79.8772 27.224 79.5647 27.4062C79.2522 27.5885 78.995 27.8392 78.7932 28.1582C78.5979 28.4772 78.4514 28.8483 78.3538 29.2715C78.2561 29.6947 78.2073 30.1471 78.2073 30.6289ZM89.9456 27.6895V36H87.592V25.4336H89.8088L89.9456 27.6895ZM89.5256 30.3262L88.7639 30.3164C88.7704 29.5677 88.8746 28.8809 89.0764 28.2559C89.2847 27.6309 89.5712 27.0938 89.9358 26.6445C90.3069 26.1953 90.7496 25.8503 91.2639 25.6094C91.7782 25.362 92.3512 25.2383 92.9827 25.2383C93.4905 25.2383 93.9495 25.3099 94.3596 25.4531C94.7763 25.5898 95.1311 25.8145 95.4241 26.127C95.7236 26.4395 95.9514 26.8464 96.1077 27.3477C96.2639 27.8424 96.342 28.4512 96.342 29.1738V36H93.9788V29.1641C93.9788 28.6562 93.9039 28.2559 93.7542 27.9629C93.6109 27.6634 93.3993 27.4518 93.1194 27.3281C92.8459 27.1979 92.5042 27.1328 92.094 27.1328C91.6903 27.1328 91.329 27.2174 91.01 27.3867C90.691 27.556 90.4208 27.7871 90.1995 28.0801C89.9846 28.373 89.8186 28.7116 89.7014 29.0957C89.5842 29.4798 89.5256 29.89 89.5256 30.3262ZM106.576 21.7812V36H104.125V21.7812H106.576ZM111.723 27.6895V36H109.369V25.4336H111.586L111.723 27.6895ZM111.303 30.3262L110.541 30.3164C110.548 29.5677 110.652 28.8809 110.854 28.2559C111.062 27.6309 111.349 27.0938 111.713 26.6445C112.084 26.1953 112.527 25.8503 113.041 25.6094C113.556 25.362 114.128 25.2383 114.76 25.2383C115.268 25.2383 115.727 25.3099 116.137 25.4531C116.554 25.5898 116.908 25.8145 117.201 26.127C117.501 26.4395 117.729 26.8464 117.885 27.3477C118.041 27.8424 118.119 28.4512 118.119 29.1738V36H115.756V29.1641C115.756 28.6562 115.681 28.2559 115.531 27.9629C115.388 27.6634 115.177 27.4518 114.897 27.3281C114.623 27.1979 114.281 27.1328 113.871 27.1328C113.468 27.1328 113.106 27.2174 112.787 27.3867C112.468 27.556 112.198 27.7871 111.977 28.0801C111.762 28.373 111.596 28.7116 111.479 29.0957C111.362 29.4798 111.303 29.89 111.303 30.3262ZM128.373 33.6562L130.815 25.4336H132.319L131.908 27.8945L129.448 36H128.1L128.373 33.6562ZM126.938 25.4336L128.842 33.6953L128.998 36H127.494L124.633 25.4336H126.938ZM134.604 33.5977L136.449 25.4336H138.744L135.893 36H134.389L134.604 33.5977ZM132.573 25.4336L134.985 33.5586L135.287 36H133.94L131.449 27.8848L131.039 25.4336H132.573ZM142.865 25.4336V36H140.502V25.4336H142.865ZM140.346 22.6602C140.346 22.3021 140.463 22.0059 140.698 21.7715C140.938 21.5306 141.27 21.4102 141.694 21.4102C142.11 21.4102 142.439 21.5306 142.68 21.7715C142.921 22.0059 143.041 22.3021 143.041 22.6602C143.041 23.0117 142.921 23.3047 142.68 23.5391C142.439 23.7734 142.11 23.8906 141.694 23.8906C141.27 23.8906 140.938 23.7734 140.698 23.5391C140.463 23.3047 140.346 23.0117 140.346 22.6602ZM150.287 25.4336V27.1523H144.33V25.4336H150.287ZM146.049 22.8457H148.403V33.0801C148.403 33.4056 148.448 33.6562 148.539 33.832C148.637 34.0013 148.77 34.1152 148.94 34.1738C149.109 34.2324 149.308 34.2617 149.535 34.2617C149.698 34.2617 149.854 34.252 150.004 34.2324C150.154 34.2129 150.274 34.1934 150.365 34.1738L150.375 35.9707C150.18 36.0293 149.952 36.0814 149.692 36.127C149.438 36.1725 149.145 36.1953 148.813 36.1953C148.272 36.1953 147.794 36.1009 147.377 35.9121C146.961 35.7168 146.635 35.401 146.401 34.9648C146.166 34.5286 146.049 33.9492 146.049 33.2266V22.8457ZM154.428 21V36H152.084V21H154.428ZM154.018 30.3262L153.256 30.3164C153.263 29.5872 153.364 28.9134 153.559 28.2949C153.761 27.6764 154.041 27.1393 154.399 26.6836C154.763 26.2214 155.199 25.8665 155.707 25.6191C156.215 25.3652 156.778 25.2383 157.397 25.2383C157.918 25.2383 158.386 25.3099 158.803 25.4531C159.226 25.5964 159.591 25.8275 159.897 26.1465C160.203 26.459 160.434 26.8691 160.59 27.377C160.753 27.8783 160.834 28.4902 160.834 29.2129V36H158.471V29.1934C158.471 28.6855 158.396 28.2819 158.246 27.9824C158.103 27.6829 157.892 27.4681 157.612 27.3379C157.332 27.2012 156.99 27.1328 156.586 27.1328C156.163 27.1328 155.789 27.2174 155.463 27.3867C155.144 27.556 154.877 27.7871 154.662 28.0801C154.448 28.373 154.285 28.7116 154.174 29.0957C154.07 29.4798 154.018 29.89 154.018 30.3262ZM179.35 28.7344V34.1641C179.148 34.431 178.832 34.724 178.403 35.043C177.979 35.3555 177.416 35.6257 176.713 35.8535C176.01 36.0814 175.134 36.1953 174.086 36.1953C173.194 36.1953 172.377 36.0456 171.635 35.7461C170.893 35.4401 170.252 34.9941 169.711 34.4082C169.177 33.8223 168.764 33.1094 168.471 32.2695C168.178 31.4232 168.031 30.4596 168.031 29.3789V28.3926C168.031 27.3184 168.165 26.3613 168.432 25.5215C168.705 24.6751 169.096 23.959 169.604 23.373C170.112 22.7871 170.724 22.3444 171.44 22.0449C172.162 21.7389 172.979 21.5859 173.891 21.5859C175.056 21.5859 176.02 21.7812 176.781 22.1719C177.55 22.556 178.142 23.0898 178.559 23.7734C178.976 24.457 179.239 25.2383 179.35 26.1172H176.948C176.869 25.6224 176.716 25.1797 176.489 24.7891C176.267 24.3984 175.948 24.0924 175.531 23.8711C175.121 23.6432 174.587 23.5293 173.93 23.5293C173.364 23.5293 172.865 23.6367 172.436 23.8516C172.006 24.0664 171.648 24.3822 171.362 24.7988C171.082 25.2155 170.87 25.7233 170.727 26.3223C170.584 26.9212 170.512 27.6048 170.512 28.373V29.3789C170.512 30.1602 170.593 30.8535 170.756 31.459C170.925 32.0645 171.166 32.5755 171.479 32.9922C171.798 33.4089 172.185 33.7246 172.641 33.9395C173.097 34.1478 173.611 34.252 174.184 34.252C174.744 34.252 175.203 34.2064 175.561 34.1152C175.919 34.0176 176.202 33.9036 176.41 33.7734C176.625 33.6367 176.791 33.5065 176.908 33.3828V30.5605H173.949V28.7344H179.35ZM181.381 30.834V30.6094C181.381 29.8477 181.492 29.1413 181.713 28.4902C181.934 27.8327 182.253 27.263 182.67 26.7812C183.093 26.293 183.608 25.9154 184.213 25.6484C184.825 25.375 185.515 25.2383 186.283 25.2383C187.058 25.2383 187.748 25.375 188.354 25.6484C188.966 25.9154 189.483 26.293 189.906 26.7812C190.33 27.263 190.652 27.8327 190.873 28.4902C191.095 29.1413 191.205 29.8477 191.205 30.6094V30.834C191.205 31.5957 191.095 32.3021 190.873 32.9531C190.652 33.6042 190.33 34.1738 189.906 34.6621C189.483 35.1439 188.969 35.5215 188.364 35.7949C187.758 36.0618 187.071 36.1953 186.303 36.1953C185.528 36.1953 184.835 36.0618 184.223 35.7949C183.617 35.5215 183.103 35.1439 182.68 34.6621C182.257 34.1738 181.934 33.6042 181.713 32.9531C181.492 32.3021 181.381 31.5957 181.381 30.834ZM183.735 30.6094V30.834C183.735 31.3092 183.783 31.7585 183.881 32.1816C183.979 32.6048 184.132 32.9759 184.34 33.2949C184.548 33.6139 184.815 33.8646 185.141 34.0469C185.466 34.2292 185.854 34.3203 186.303 34.3203C186.739 34.3203 187.117 34.2292 187.436 34.0469C187.761 33.8646 188.028 33.6139 188.237 33.2949C188.445 32.9759 188.598 32.6048 188.696 32.1816C188.8 31.7585 188.852 31.3092 188.852 30.834V30.6094C188.852 30.1406 188.8 29.6979 188.696 29.2812C188.598 28.8581 188.442 28.4837 188.227 28.1582C188.018 27.8327 187.752 27.5788 187.426 27.3965C187.107 27.2077 186.726 27.1133 186.283 27.1133C185.841 27.1133 185.457 27.2077 185.131 27.3965C184.812 27.5788 184.548 27.8327 184.34 28.1582C184.132 28.4837 183.979 28.8581 183.881 29.2812C183.783 29.6979 183.735 30.1406 183.735 30.6094ZM192.729 30.834V30.6094C192.729 29.8477 192.839 29.1413 193.061 28.4902C193.282 27.8327 193.601 27.263 194.018 26.7812C194.441 26.293 194.955 25.9154 195.561 25.6484C196.173 25.375 196.863 25.2383 197.631 25.2383C198.406 25.2383 199.096 25.375 199.701 25.6484C200.313 25.9154 200.831 26.293 201.254 26.7812C201.677 27.263 202 27.8327 202.221 28.4902C202.442 29.1413 202.553 29.8477 202.553 30.6094V30.834C202.553 31.5957 202.442 32.3021 202.221 32.9531C202 33.6042 201.677 34.1738 201.254 34.6621C200.831 35.1439 200.317 35.5215 199.711 35.7949C199.106 36.0618 198.419 36.1953 197.651 36.1953C196.876 36.1953 196.183 36.0618 195.571 35.7949C194.965 35.5215 194.451 35.1439 194.028 34.6621C193.604 34.1738 193.282 33.6042 193.061 32.9531C192.839 32.3021 192.729 31.5957 192.729 30.834ZM195.082 30.6094V30.834C195.082 31.3092 195.131 31.7585 195.229 32.1816C195.326 32.6048 195.479 32.9759 195.688 33.2949C195.896 33.6139 196.163 33.8646 196.489 34.0469C196.814 34.2292 197.201 34.3203 197.651 34.3203C198.087 34.3203 198.464 34.2292 198.783 34.0469C199.109 33.8646 199.376 33.6139 199.584 33.2949C199.793 32.9759 199.946 32.6048 200.043 32.1816C200.147 31.7585 200.199 31.3092 200.199 30.834V30.6094C200.199 30.1406 200.147 29.6979 200.043 29.2812C199.946 28.8581 199.789 28.4837 199.574 28.1582C199.366 27.8327 199.099 27.5788 198.774 27.3965C198.455 27.2077 198.074 27.1133 197.631 27.1133C197.188 27.1133 196.804 27.2077 196.479 27.3965C196.16 27.5788 195.896 27.8327 195.688 28.1582C195.479 28.4837 195.326 28.8581 195.229 29.2812C195.131 29.6979 195.082 30.1406 195.082 30.6094ZM211.293 25.4336H213.432V35.707C213.432 36.6576 213.23 37.4648 212.826 38.1289C212.423 38.793 211.86 39.2975 211.137 39.6426C210.414 39.9941 209.578 40.1699 208.627 40.1699C208.224 40.1699 207.774 40.1113 207.28 39.9941C206.791 39.877 206.316 39.6882 205.854 39.4277C205.398 39.1738 205.017 38.8385 204.711 38.4219L205.815 37.0352C206.192 37.4844 206.609 37.8132 207.065 38.0215C207.52 38.2298 207.999 38.334 208.5 38.334C209.041 38.334 209.5 38.2331 209.877 38.0312C210.261 37.8359 210.558 37.5462 210.766 37.1621C210.974 36.778 211.078 36.3092 211.078 35.7559V27.8262L211.293 25.4336ZM204.115 30.834V30.6289C204.115 29.8281 204.213 29.099 204.408 28.4414C204.604 27.7773 204.884 27.2077 205.248 26.7324C205.613 26.2507 206.056 25.8828 206.576 25.6289C207.097 25.3685 207.686 25.2383 208.344 25.2383C209.028 25.2383 209.61 25.362 210.092 25.6094C210.58 25.8568 210.987 26.2116 211.313 26.6738C211.638 27.1296 211.892 27.6764 212.074 28.3145C212.263 28.946 212.403 29.6491 212.494 30.4238V31.0781C212.41 31.8333 212.267 32.5234 212.065 33.1484C211.863 33.7734 211.596 34.3138 211.264 34.7695C210.932 35.2253 210.522 35.5768 210.033 35.8242C209.552 36.0716 208.982 36.1953 208.324 36.1953C207.68 36.1953 207.097 36.0618 206.576 35.7949C206.062 35.528 205.619 35.1536 205.248 34.6719C204.884 34.1901 204.604 33.6237 204.408 32.9727C204.213 32.3151 204.115 31.6022 204.115 30.834ZM206.469 30.6289V30.834C206.469 31.3158 206.515 31.765 206.606 32.1816C206.703 32.5983 206.85 32.9661 207.045 33.2852C207.247 33.5977 207.501 33.8451 207.807 34.0273C208.119 34.2031 208.487 34.291 208.91 34.291C209.464 34.291 209.916 34.1738 210.268 33.9395C210.626 33.7051 210.899 33.3893 211.088 32.9922C211.283 32.5885 211.42 32.1393 211.498 31.6445V29.877C211.459 29.4928 211.378 29.1348 211.254 28.8027C211.137 28.4707 210.977 28.181 210.776 27.9336C210.574 27.6797 210.32 27.4844 210.014 27.3477C209.708 27.2044 209.347 27.1328 208.93 27.1328C208.507 27.1328 208.139 27.224 207.826 27.4062C207.514 27.5885 207.257 27.8392 207.055 28.1582C206.86 28.4772 206.713 28.8483 206.615 29.2715C206.518 29.6947 206.469 30.1471 206.469 30.6289ZM218.393 21V36H216.03V21H218.393ZM225.629 36.1953C224.848 36.1953 224.142 36.0684 223.51 35.8145C222.885 35.554 222.351 35.1927 221.908 34.7305C221.472 34.2682 221.137 33.7246 220.903 33.0996C220.668 32.4746 220.551 31.8008 220.551 31.0781V30.6875C220.551 29.8607 220.671 29.112 220.912 28.4414C221.153 27.7708 221.489 27.1979 221.918 26.7227C222.348 26.2409 222.856 25.873 223.442 25.6191C224.028 25.3652 224.662 25.2383 225.346 25.2383C226.101 25.2383 226.762 25.3652 227.328 25.6191C227.895 25.873 228.364 26.2311 228.735 26.6934C229.112 27.1491 229.392 27.6927 229.574 28.3242C229.763 28.9557 229.858 29.6523 229.858 30.4141V31.4199H221.694V29.7305H227.533V29.5449C227.52 29.1217 227.436 28.7246 227.28 28.3535C227.13 27.9824 226.899 27.6829 226.586 27.4551C226.274 27.2272 225.857 27.1133 225.336 27.1133C224.946 27.1133 224.597 27.1979 224.291 27.3672C223.992 27.5299 223.741 27.7676 223.539 28.0801C223.337 28.3926 223.181 28.7702 223.071 29.2129C222.966 29.6491 222.914 30.1406 222.914 30.6875V31.0781C222.914 31.5404 222.976 31.9701 223.1 32.3672C223.23 32.7578 223.419 33.0996 223.666 33.3926C223.914 33.6855 224.213 33.9167 224.565 34.0859C224.916 34.2487 225.317 34.3301 225.766 34.3301C226.332 34.3301 226.837 34.2161 227.28 33.9883C227.722 33.7604 228.106 33.4382 228.432 33.0215L229.672 34.2227C229.444 34.5547 229.148 34.8737 228.783 35.1797C228.419 35.4792 227.973 35.7233 227.446 35.9121C226.925 36.1009 226.319 36.1953 225.629 36.1953Z" fill="black" fill-opacity="0.54"/>
</g>
<defs>
<filter id="filter0_dd_1_720" x="0.845947" y="0" width="351" height="62" filterUnits="userSpaceOnUse" color-interpolation-filters="sRGB">
<feFlood flood-opacity="0" result="BackgroundImageFix"/>
<feColorMatrix in="SourceAlpha" type="matrix" values="0 0 0 0 0 0 0 0 0 0 0 0 0 0 0 0 0 0 127 0" result="hardAlpha"/>
<feOffset dy="2"/>
<feGaussianBlur stdDeviation="1.5"/>
<feColorMatrix type="matrix" values="0 0 0 0 0 0 0 0 0 0 0 0 0 0 0 0 0 0 0.168 0"/>
<feBlend mode="normal" in2="BackgroundImageFix" result="effect1_dropShadow_1_720"/>
<feColorMatrix in="SourceAlpha" type="matrix" values="0 0 0 0 0 0 0 0 0 0 0 0 0 0 0 0 0 0 127 0" result="hardAlpha"/>
<feOffset/>
<feGaussianBlur stdDeviation="1.5"/>
<feColorMatrix type="matrix" values="0 0 0 0 0 0 0 0 0 0 0 0 0 0 0 0 0 0 0.084 0"/>
<feBlend mode="normal" in2="effect1_dropShadow_1_720" result="effect2_dropShadow_1_720"/>
<feBlend mode="normal" in="SourceGraphic" in2="effect2_dropShadow_1_720" result="shape"/>
</filter>
</defs>
</svg>
